<mxfile host="app.diagrams.net" modified="2023-10-15T16:40:55.318Z" agent="Mozilla/5.0 (Windows NT 10.0; Win64; x64) AppleWebKit/537.36 (KHTML, like Gecko) Chrome/118.0.0.0 Safari/537.36" etag="ls8g_UsTI1A15mfw4xag" version="22.0.4" type="google">
  <diagram name="Pagina-1" id="2QWIL4vbvpltsjxMbXF1">
    <mxGraphModel dx="2049" dy="1083" grid="1" gridSize="10" guides="1" tooltips="1" connect="1" arrows="1" fold="1" page="1" pageScale="1" pageWidth="1200" pageHeight="1920" math="0" shadow="0">
      <root>
        <mxCell id="0" />
        <mxCell id="1" parent="0" />
        <mxCell id="li3QjBNvHhRdPS1q4tIi-4" value="" style="whiteSpace=wrap;html=1;" vertex="1" parent="1">
          <mxGeometry x="100" y="10" width="1050" height="1420" as="geometry" />
        </mxCell>
        <mxCell id="ZsmI9QigezWX8dCG7gWK-1" value="Gym Reception" style="shape=umlActor;verticalLabelPosition=bottom;verticalAlign=top;html=1;outlineConnect=0;" parent="1" vertex="1">
          <mxGeometry x="50" y="250" width="30" height="60" as="geometry" />
        </mxCell>
        <mxCell id="ZsmI9QigezWX8dCG7gWK-3" value="&lt;div&gt;Personal&lt;/div&gt;&lt;div&gt;Trainer&lt;/div&gt;" style="shape=umlActor;verticalLabelPosition=bottom;verticalAlign=top;html=1;outlineConnect=0;" parent="1" vertex="1">
          <mxGeometry x="70" y="540" width="30" height="60" as="geometry" />
        </mxCell>
        <mxCell id="ZsmI9QigezWX8dCG7gWK-11" value="" style="endArrow=classic;html=1;rounded=0;entryX=0;entryY=0.5;entryDx=0;entryDy=0;exitX=0.5;exitY=0.5;exitDx=0;exitDy=0;exitPerimeter=0;" parent="1" source="ZsmI9QigezWX8dCG7gWK-1" target="ZsmI9QigezWX8dCG7gWK-15" edge="1">
          <mxGeometry width="50" height="50" relative="1" as="geometry">
            <mxPoint x="90" y="280" as="sourcePoint" />
            <mxPoint x="60" y="130" as="targetPoint" />
          </mxGeometry>
        </mxCell>
        <mxCell id="ZsmI9QigezWX8dCG7gWK-15" value="Delete/Register Athletes or Personal Trainers" style="ellipse;whiteSpace=wrap;html=1;" parent="1" vertex="1">
          <mxGeometry x="460" y="20" width="120" height="80" as="geometry" />
        </mxCell>
        <mxCell id="ZsmI9QigezWX8dCG7gWK-16" value="" style="endArrow=classic;html=1;rounded=0;entryX=0;entryY=0.5;entryDx=0;entryDy=0;exitX=0.5;exitY=0.5;exitDx=0;exitDy=0;exitPerimeter=0;" parent="1" source="ZsmI9QigezWX8dCG7gWK-1" target="ZsmI9QigezWX8dCG7gWK-17" edge="1">
          <mxGeometry width="50" height="50" relative="1" as="geometry">
            <mxPoint x="300" y="325" as="sourcePoint" />
            <mxPoint x="300" y="385" as="targetPoint" />
          </mxGeometry>
        </mxCell>
        <mxCell id="ZsmI9QigezWX8dCG7gWK-17" value="Manage Gym Equipment" style="ellipse;whiteSpace=wrap;html=1;" parent="1" vertex="1">
          <mxGeometry x="270" y="190" width="120" height="80" as="geometry" />
        </mxCell>
        <mxCell id="ZsmI9QigezWX8dCG7gWK-26" value="" style="endArrow=classic;html=1;rounded=0;entryX=0.061;entryY=0.267;entryDx=0;entryDy=0;exitX=0.5;exitY=0.5;exitDx=0;exitDy=0;exitPerimeter=0;entryPerimeter=0;" parent="1" source="ZsmI9QigezWX8dCG7gWK-1" target="ZsmI9QigezWX8dCG7gWK-27" edge="1">
          <mxGeometry width="50" height="50" relative="1" as="geometry">
            <mxPoint x="85" y="370" as="sourcePoint" />
            <mxPoint x="85" y="430" as="targetPoint" />
          </mxGeometry>
        </mxCell>
        <mxCell id="ZsmI9QigezWX8dCG7gWK-27" value="Send Communication to Athletes/Personal Trianers*" style="ellipse;whiteSpace=wrap;html=1;" parent="1" vertex="1">
          <mxGeometry x="270" y="320" width="120" height="80" as="geometry" />
        </mxCell>
        <mxCell id="ZsmI9QigezWX8dCG7gWK-30" value="Delete Gym Equipment" style="ellipse;whiteSpace=wrap;html=1;fillColor=#ffe6cc;strokeColor=#d79b00;" parent="1" vertex="1">
          <mxGeometry x="580" y="140" width="120" height="80" as="geometry" />
        </mxCell>
        <mxCell id="ZsmI9QigezWX8dCG7gWK-33" value="Add Gym Equipment" style="ellipse;whiteSpace=wrap;html=1;fillColor=#ffe6cc;strokeColor=#d79b00;" parent="1" vertex="1">
          <mxGeometry x="560" y="230" width="120" height="80" as="geometry" />
        </mxCell>
        <mxCell id="ZsmI9QigezWX8dCG7gWK-36" value="" style="endArrow=classic;html=1;rounded=0;entryX=0.061;entryY=0.261;entryDx=0;entryDy=0;exitX=1;exitY=1;exitDx=0;exitDy=0;entryPerimeter=0;" parent="1" source="ZsmI9QigezWX8dCG7gWK-27" target="ZsmI9QigezWX8dCG7gWK-38" edge="1">
          <mxGeometry width="50" height="50" relative="1" as="geometry">
            <mxPoint x="300" y="340" as="sourcePoint" />
            <mxPoint x="70" y="520" as="targetPoint" />
          </mxGeometry>
        </mxCell>
        <mxCell id="ZsmI9QigezWX8dCG7gWK-37" value="Include" style="edgeLabel;html=1;align=center;verticalAlign=middle;resizable=0;points=[];" parent="ZsmI9QigezWX8dCG7gWK-36" vertex="1" connectable="0">
          <mxGeometry x="0.4811" y="-1" relative="1" as="geometry">
            <mxPoint x="-128" y="-37" as="offset" />
          </mxGeometry>
        </mxCell>
        <mxCell id="ZsmI9QigezWX8dCG7gWK-38" value="&lt;div&gt;Send Notification&lt;/div&gt;" style="ellipse;whiteSpace=wrap;html=1;" parent="1" vertex="1">
          <mxGeometry x="780" y="490" width="120" height="80" as="geometry" />
        </mxCell>
        <mxCell id="ZsmI9QigezWX8dCG7gWK-39" value="" style="endArrow=classic;html=1;rounded=0;entryX=1;entryY=0.5;entryDx=0;entryDy=0;fillColor=#ffe6cc;strokeColor=#d79b00;" parent="1" source="ZsmI9QigezWX8dCG7gWK-30" target="ZsmI9QigezWX8dCG7gWK-17" edge="1">
          <mxGeometry width="50" height="50" relative="1" as="geometry">
            <mxPoint x="460" y="199.74" as="sourcePoint" />
            <mxPoint x="320" y="200" as="targetPoint" />
          </mxGeometry>
        </mxCell>
        <mxCell id="ZsmI9QigezWX8dCG7gWK-40" value="&lt;div&gt;Extend&lt;/div&gt;" style="edgeLabel;html=1;align=center;verticalAlign=middle;resizable=0;points=[];" parent="ZsmI9QigezWX8dCG7gWK-39" vertex="1" connectable="0">
          <mxGeometry x="0.4811" y="-1" relative="1" as="geometry">
            <mxPoint x="70" y="-11" as="offset" />
          </mxGeometry>
        </mxCell>
        <mxCell id="ZsmI9QigezWX8dCG7gWK-41" value="" style="endArrow=classic;html=1;rounded=0;exitX=0;exitY=0.5;exitDx=0;exitDy=0;entryX=0.885;entryY=0.822;entryDx=0;entryDy=0;entryPerimeter=0;fillColor=#ffe6cc;strokeColor=#d79b00;" parent="1" source="ZsmI9QigezWX8dCG7gWK-33" target="ZsmI9QigezWX8dCG7gWK-17" edge="1">
          <mxGeometry width="50" height="50" relative="1" as="geometry">
            <mxPoint x="460" y="300" as="sourcePoint" />
            <mxPoint x="282" y="242" as="targetPoint" />
          </mxGeometry>
        </mxCell>
        <mxCell id="ZsmI9QigezWX8dCG7gWK-42" value="&lt;div&gt;Extend&lt;/div&gt;" style="edgeLabel;html=1;align=center;verticalAlign=middle;resizable=0;points=[];" parent="ZsmI9QigezWX8dCG7gWK-41" vertex="1" connectable="0">
          <mxGeometry x="0.4811" y="-1" relative="1" as="geometry">
            <mxPoint x="44" y="6" as="offset" />
          </mxGeometry>
        </mxCell>
        <mxCell id="ZsmI9QigezWX8dCG7gWK-53" value="&lt;div&gt;Manage Athletes or Personal Trainers ????&lt;/div&gt;" style="ellipse;whiteSpace=wrap;html=1;fillColor=#ffe6cc;strokeColor=#d79b00;" parent="1" vertex="1">
          <mxGeometry x="130" y="50" width="120" height="80" as="geometry" />
        </mxCell>
        <mxCell id="ZsmI9QigezWX8dCG7gWK-59" value="&lt;div&gt;Manage Workout Session&lt;/div&gt;" style="ellipse;whiteSpace=wrap;html=1;" parent="1" vertex="1">
          <mxGeometry x="240" y="1133.52" width="120" height="80" as="geometry" />
        </mxCell>
        <mxCell id="ZsmI9QigezWX8dCG7gWK-60" value="" style="endArrow=classic;html=1;rounded=0;exitX=0.5;exitY=0.5;exitDx=0;exitDy=0;exitPerimeter=0;entryX=0;entryY=0.5;entryDx=0;entryDy=0;" parent="1" target="ZsmI9QigezWX8dCG7gWK-69" edge="1">
          <mxGeometry width="50" height="50" relative="1" as="geometry">
            <mxPoint x="85" y="1083.5200000000002" as="sourcePoint" />
            <mxPoint x="664.48" y="889.9999999999998" as="targetPoint" />
          </mxGeometry>
        </mxCell>
        <mxCell id="ZsmI9QigezWX8dCG7gWK-62" value="" style="endArrow=classic;html=1;rounded=0;entryX=0;entryY=0.5;entryDx=0;entryDy=0;exitX=0.5;exitY=0.5;exitDx=0;exitDy=0;exitPerimeter=0;" parent="1" target="ZsmI9QigezWX8dCG7gWK-70" edge="1">
          <mxGeometry width="50" height="50" relative="1" as="geometry">
            <mxPoint x="85" y="1083.5200000000002" as="sourcePoint" />
            <mxPoint x="274.99999999999727" y="1083.5200000000002" as="targetPoint" />
          </mxGeometry>
        </mxCell>
        <mxCell id="ZsmI9QigezWX8dCG7gWK-63" value="" style="endArrow=classic;html=1;rounded=0;entryX=0;entryY=0.5;entryDx=0;entryDy=0;exitX=0.5;exitY=0.5;exitDx=0;exitDy=0;exitPerimeter=0;" parent="1" target="ZsmI9QigezWX8dCG7gWK-59" edge="1">
          <mxGeometry width="50" height="50" relative="1" as="geometry">
            <mxPoint x="85" y="1083.5200000000002" as="sourcePoint" />
            <mxPoint x="275" y="1263.52" as="targetPoint" />
          </mxGeometry>
        </mxCell>
        <mxCell id="ZsmI9QigezWX8dCG7gWK-68" value="Athlete" style="shape=umlActor;verticalLabelPosition=bottom;verticalAlign=top;html=1;outlineConnect=0;" parent="1" vertex="1">
          <mxGeometry x="70" y="1053.52" width="30" height="60" as="geometry" />
        </mxCell>
        <mxCell id="ZsmI9QigezWX8dCG7gWK-69" value="Write a message for Gym Reception or PT" style="ellipse;whiteSpace=wrap;html=1;" parent="1" vertex="1">
          <mxGeometry x="930" y="760" width="120" height="80" as="geometry" />
        </mxCell>
        <mxCell id="ZsmI9QigezWX8dCG7gWK-70" value="Manage Workout Routine" style="ellipse;whiteSpace=wrap;html=1;" parent="1" vertex="1">
          <mxGeometry x="380" y="1083.52" width="120" height="80" as="geometry" />
        </mxCell>
        <mxCell id="ZsmI9QigezWX8dCG7gWK-76" value="" style="endArrow=classic;html=1;rounded=0;exitX=0;exitY=0.5;exitDx=0;exitDy=0;entryX=1;entryY=0.5;entryDx=0;entryDy=0;fillColor=#ffe6cc;strokeColor=#d79b00;" parent="1" source="ZsmI9QigezWX8dCG7gWK-78" target="ZsmI9QigezWX8dCG7gWK-70" edge="1">
          <mxGeometry width="50" height="50" relative="1" as="geometry">
            <mxPoint x="198" y="1413.52" as="sourcePoint" />
            <mxPoint x="398" y="1083.52" as="targetPoint" />
          </mxGeometry>
        </mxCell>
        <mxCell id="ZsmI9QigezWX8dCG7gWK-77" value="&lt;div&gt;Extend&lt;/div&gt;" style="edgeLabel;html=1;align=center;verticalAlign=middle;resizable=0;points=[];" parent="ZsmI9QigezWX8dCG7gWK-76" vertex="1" connectable="0">
          <mxGeometry x="0.4811" y="-1" relative="1" as="geometry">
            <mxPoint x="72" y="1" as="offset" />
          </mxGeometry>
        </mxCell>
        <mxCell id="ZsmI9QigezWX8dCG7gWK-78" value="&lt;div&gt;Create Workout&lt;/div&gt;&lt;div&gt;Routine&lt;br&gt;&lt;/div&gt;" style="ellipse;whiteSpace=wrap;html=1;fillColor=#ffe6cc;strokeColor=#d79b00;" parent="1" vertex="1">
          <mxGeometry x="850" y="1100" width="120" height="80" as="geometry" />
        </mxCell>
        <mxCell id="ZsmI9QigezWX8dCG7gWK-79" value="" style="endArrow=classic;html=1;rounded=0;entryX=1;entryY=1;entryDx=0;entryDy=0;exitX=-0.004;exitY=0.454;exitDx=0;exitDy=0;exitPerimeter=0;fillColor=#ffe6cc;strokeColor=#d79b00;" parent="1" source="ZsmI9QigezWX8dCG7gWK-81" target="ZsmI9QigezWX8dCG7gWK-70" edge="1">
          <mxGeometry width="50" height="50" relative="1" as="geometry">
            <mxPoint x="408" y="1173.52" as="sourcePoint" />
            <mxPoint x="380" y="1111.52" as="targetPoint" />
          </mxGeometry>
        </mxCell>
        <mxCell id="ZsmI9QigezWX8dCG7gWK-80" value="&lt;div&gt;Extend&lt;/div&gt;" style="edgeLabel;html=1;align=center;verticalAlign=middle;resizable=0;points=[];" parent="ZsmI9QigezWX8dCG7gWK-79" vertex="1" connectable="0">
          <mxGeometry x="0.4811" y="-1" relative="1" as="geometry">
            <mxPoint x="26" y="14" as="offset" />
          </mxGeometry>
        </mxCell>
        <mxCell id="ZsmI9QigezWX8dCG7gWK-81" value="Modify Workout Routine" style="ellipse;whiteSpace=wrap;html=1;fillColor=#ffe6cc;strokeColor=#d79b00;" parent="1" vertex="1">
          <mxGeometry x="810" y="1200" width="120" height="80" as="geometry" />
        </mxCell>
        <mxCell id="ZsmI9QigezWX8dCG7gWK-87" value="" style="endArrow=classic;html=1;rounded=0;entryX=0;entryY=0.5;entryDx=0;entryDy=0;exitX=0.5;exitY=0.5;exitDx=0;exitDy=0;exitPerimeter=0;" parent="1" target="ZsmI9QigezWX8dCG7gWK-88" edge="1">
          <mxGeometry width="50" height="50" relative="1" as="geometry">
            <mxPoint x="85" y="570.0000000000001" as="sourcePoint" />
            <mxPoint x="274.99999999999727" y="570.0000000000001" as="targetPoint" />
          </mxGeometry>
        </mxCell>
        <mxCell id="ZsmI9QigezWX8dCG7gWK-88" value="Manage Athletes" style="ellipse;whiteSpace=wrap;html=1;" parent="1" vertex="1">
          <mxGeometry x="270" y="440" width="120" height="80" as="geometry" />
        </mxCell>
        <mxCell id="ZsmI9QigezWX8dCG7gWK-95" value="" style="endArrow=classic;html=1;rounded=0;entryX=0;entryY=1;entryDx=0;entryDy=0;exitX=0.5;exitY=0.5;exitDx=0;exitDy=0;exitPerimeter=0;" parent="1" source="ZsmI9QigezWX8dCG7gWK-68" target="ZsmI9QigezWX8dCG7gWK-96" edge="1">
          <mxGeometry width="50" height="50" relative="1" as="geometry">
            <mxPoint x="70" y="1083.52" as="sourcePoint" />
            <mxPoint x="274.99999999999727" y="993.5200000000001" as="targetPoint" />
          </mxGeometry>
        </mxCell>
        <mxCell id="ZsmI9QigezWX8dCG7gWK-96" value="Ask Workout Report" style="ellipse;whiteSpace=wrap;html=1;" parent="1" vertex="1">
          <mxGeometry x="200" y="840" width="120" height="80" as="geometry" />
        </mxCell>
        <mxCell id="ZsmI9QigezWX8dCG7gWK-115" value="Send an email*" style="ellipse;whiteSpace=wrap;html=1;" parent="1" vertex="1">
          <mxGeometry x="890" y="190" width="120" height="80" as="geometry" />
        </mxCell>
        <mxCell id="kKpxBKTfGCmxrDNPB5GM-2" value="" style="endArrow=classic;html=1;rounded=0;entryX=0;entryY=0;entryDx=0;entryDy=0;exitX=0.5;exitY=1;exitDx=0;exitDy=0;" parent="1" source="ZsmI9QigezWX8dCG7gWK-115" target="ZsmI9QigezWX8dCG7gWK-38" edge="1">
          <mxGeometry width="50" height="50" relative="1" as="geometry">
            <mxPoint x="312" y="388" as="sourcePoint" />
            <mxPoint x="797" y="521" as="targetPoint" />
          </mxGeometry>
        </mxCell>
        <mxCell id="kKpxBKTfGCmxrDNPB5GM-4" value="" style="endArrow=classic;html=1;rounded=0;exitX=1;exitY=0.5;exitDx=0;exitDy=0;entryX=0.5;entryY=0.5;entryDx=0;entryDy=0;entryPerimeter=0;" parent="1" source="ZsmI9QigezWX8dCG7gWK-115" target="kKpxBKTfGCmxrDNPB5GM-6" edge="1">
          <mxGeometry width="50" height="50" relative="1" as="geometry">
            <mxPoint x="472" y="348" as="sourcePoint" />
            <mxPoint x="1300" y="330" as="targetPoint" />
          </mxGeometry>
        </mxCell>
        <mxCell id="kKpxBKTfGCmxrDNPB5GM-6" value="Email System" style="shape=umlActor;verticalLabelPosition=bottom;verticalAlign=top;html=1;outlineConnect=0;" parent="1" vertex="1">
          <mxGeometry x="1300" y="290" width="30" height="60" as="geometry" />
        </mxCell>
        <mxCell id="kKpxBKTfGCmxrDNPB5GM-7" value="&lt;div&gt;Paypal System&lt;/div&gt;" style="shape=umlActor;verticalLabelPosition=bottom;verticalAlign=top;html=1;outlineConnect=0;" parent="1" vertex="1">
          <mxGeometry x="1280" y="953.52" width="30" height="60" as="geometry" />
        </mxCell>
        <mxCell id="kKpxBKTfGCmxrDNPB5GM-10" value="Ask Workout Routine" style="ellipse;whiteSpace=wrap;html=1;" parent="1" vertex="1">
          <mxGeometry x="460" y="820" width="120" height="80" as="geometry" />
        </mxCell>
        <mxCell id="kKpxBKTfGCmxrDNPB5GM-11" value="" style="endArrow=classic;html=1;rounded=0;entryX=0;entryY=0.5;entryDx=0;entryDy=0;exitX=0.5;exitY=0.5;exitDx=0;exitDy=0;exitPerimeter=0;" parent="1" source="ZsmI9QigezWX8dCG7gWK-68" target="kKpxBKTfGCmxrDNPB5GM-12" edge="1">
          <mxGeometry width="50" height="50" relative="1" as="geometry">
            <mxPoint x="179.9999999999999" y="1071.52" as="sourcePoint" />
            <mxPoint x="544.9999999999973" y="1093.5200000000002" as="targetPoint" />
          </mxGeometry>
        </mxCell>
        <mxCell id="kKpxBKTfGCmxrDNPB5GM-12" value="Manage membership" style="ellipse;whiteSpace=wrap;html=1;" parent="1" vertex="1">
          <mxGeometry x="500" y="963.52" width="120" height="80" as="geometry" />
        </mxCell>
        <mxCell id="kKpxBKTfGCmxrDNPB5GM-13" value="" style="endArrow=classic;html=1;rounded=0;entryX=0.5;entryY=0.5;entryDx=0;entryDy=0;exitX=1;exitY=0.5;exitDx=0;exitDy=0;entryPerimeter=0;" parent="1" source="kKpxBKTfGCmxrDNPB5GM-12" target="kKpxBKTfGCmxrDNPB5GM-7" edge="1">
          <mxGeometry width="50" height="50" relative="1" as="geometry">
            <mxPoint x="572.4264068711927" y="1110.2357287525383" as="sourcePoint" />
            <mxPoint x="1285" y="933.52" as="targetPoint" />
          </mxGeometry>
        </mxCell>
        <mxCell id="kKpxBKTfGCmxrDNPB5GM-15" value="" style="endArrow=classic;html=1;rounded=0;entryX=0.5;entryY=1;entryDx=0;entryDy=0;exitX=1;exitY=0;exitDx=0;exitDy=0;" parent="1" source="kKpxBKTfGCmxrDNPB5GM-10" target="ZsmI9QigezWX8dCG7gWK-38" edge="1">
          <mxGeometry width="50" height="50" relative="1" as="geometry">
            <mxPoint x="750" y="630" as="sourcePoint" />
            <mxPoint x="808" y="568" as="targetPoint" />
          </mxGeometry>
        </mxCell>
        <mxCell id="kKpxBKTfGCmxrDNPB5GM-16" value="Include" style="edgeLabel;html=1;align=center;verticalAlign=middle;resizable=0;points=[];" parent="kKpxBKTfGCmxrDNPB5GM-15" vertex="1" connectable="0">
          <mxGeometry x="0.4811" y="-1" relative="1" as="geometry">
            <mxPoint x="-66" y="56" as="offset" />
          </mxGeometry>
        </mxCell>
        <mxCell id="li3QjBNvHhRdPS1q4tIi-1" value="" style="endArrow=classic;html=1;rounded=0;exitX=0.5;exitY=0.5;exitDx=0;exitDy=0;exitPerimeter=0;entryX=0;entryY=0.5;entryDx=0;entryDy=0;" edge="1" parent="1" source="ZsmI9QigezWX8dCG7gWK-68" target="kKpxBKTfGCmxrDNPB5GM-10">
          <mxGeometry width="50" height="50" relative="1" as="geometry">
            <mxPoint x="710" y="1043.52" as="sourcePoint" />
            <mxPoint x="760" y="993.52" as="targetPoint" />
          </mxGeometry>
        </mxCell>
        <mxCell id="li3QjBNvHhRdPS1q4tIi-5" value="Assign workout routine" style="ellipse;whiteSpace=wrap;html=1;" vertex="1" parent="1">
          <mxGeometry x="400" y="730" width="120" height="80" as="geometry" />
        </mxCell>
        <mxCell id="li3QjBNvHhRdPS1q4tIi-6" value="" style="endArrow=classic;html=1;rounded=0;entryX=0;entryY=0.5;entryDx=0;entryDy=0;" edge="1" parent="1" source="ZsmI9QigezWX8dCG7gWK-3" target="li3QjBNvHhRdPS1q4tIi-5">
          <mxGeometry width="50" height="50" relative="1" as="geometry">
            <mxPoint x="510" y="730" as="sourcePoint" />
            <mxPoint x="560" y="680" as="targetPoint" />
          </mxGeometry>
        </mxCell>
        <mxCell id="li3QjBNvHhRdPS1q4tIi-7" value="" style="endArrow=classic;html=1;rounded=0;exitX=1;exitY=0.5;exitDx=0;exitDy=0;entryX=0;entryY=1;entryDx=0;entryDy=0;" edge="1" parent="1" source="li3QjBNvHhRdPS1q4tIi-5" target="ZsmI9QigezWX8dCG7gWK-38">
          <mxGeometry width="50" height="50" relative="1" as="geometry">
            <mxPoint x="510" y="730" as="sourcePoint" />
            <mxPoint x="560" y="680" as="targetPoint" />
          </mxGeometry>
        </mxCell>
        <mxCell id="li3QjBNvHhRdPS1q4tIi-9" value="Include" style="edgeLabel;html=1;align=center;verticalAlign=middle;resizable=0;points=[];" vertex="1" connectable="0" parent="1">
          <mxGeometry x="629.9953010478287" y="689.9960705456962" as="geometry" />
        </mxCell>
        <mxCell id="li3QjBNvHhRdPS1q4tIi-10" value="Add a comment" style="ellipse;whiteSpace=wrap;html=1;" vertex="1" parent="1">
          <mxGeometry x="430" y="570" width="120" height="80" as="geometry" />
        </mxCell>
        <mxCell id="li3QjBNvHhRdPS1q4tIi-11" value="" style="endArrow=classic;html=1;rounded=0;exitX=0.5;exitY=1;exitDx=0;exitDy=0;entryX=0.5;entryY=0;entryDx=0;entryDy=0;" edge="1" parent="1" source="li3QjBNvHhRdPS1q4tIi-10" target="li3QjBNvHhRdPS1q4tIi-5">
          <mxGeometry width="50" height="50" relative="1" as="geometry">
            <mxPoint x="490" y="710" as="sourcePoint" />
            <mxPoint x="540" y="660" as="targetPoint" />
          </mxGeometry>
        </mxCell>
        <mxCell id="li3QjBNvHhRdPS1q4tIi-12" value="&lt;div&gt;Extend&lt;/div&gt;" style="edgeLabel;html=1;align=center;verticalAlign=middle;resizable=0;points=[];" vertex="1" connectable="0" parent="1">
          <mxGeometry x="469.9998191878584" y="699.9962684396407" as="geometry" />
        </mxCell>
        <mxCell id="li3QjBNvHhRdPS1q4tIi-14" value="Manage Workout Routines" style="ellipse;whiteSpace=wrap;html=1;" vertex="1" parent="1">
          <mxGeometry x="270" y="540" width="120" height="80" as="geometry" />
        </mxCell>
        <mxCell id="li3QjBNvHhRdPS1q4tIi-15" value="" style="endArrow=classic;html=1;rounded=0;entryX=0;entryY=0.5;entryDx=0;entryDy=0;exitX=0.5;exitY=0.5;exitDx=0;exitDy=0;exitPerimeter=0;" edge="1" parent="1" source="ZsmI9QigezWX8dCG7gWK-3" target="li3QjBNvHhRdPS1q4tIi-14">
          <mxGeometry width="50" height="50" relative="1" as="geometry">
            <mxPoint x="95" y="580.0000000000001" as="sourcePoint" />
            <mxPoint x="220" y="510" as="targetPoint" />
          </mxGeometry>
        </mxCell>
        <mxCell id="li3QjBNvHhRdPS1q4tIi-17" value="" style="endArrow=classic;html=1;rounded=0;exitX=1;exitY=0.5;exitDx=0;exitDy=0;entryX=0;entryY=0.5;entryDx=0;entryDy=0;" edge="1" parent="1" source="ZsmI9QigezWX8dCG7gWK-15" target="ZsmI9QigezWX8dCG7gWK-115">
          <mxGeometry width="50" height="50" relative="1" as="geometry">
            <mxPoint x="490" y="280" as="sourcePoint" />
            <mxPoint x="540" y="230" as="targetPoint" />
          </mxGeometry>
        </mxCell>
        <mxCell id="li3QjBNvHhRdPS1q4tIi-18" value="Include" style="text;html=1;strokeColor=none;fillColor=default;align=center;verticalAlign=middle;whiteSpace=wrap;rounded=0;" vertex="1" parent="1">
          <mxGeometry x="730" y="140" width="60" height="30" as="geometry" />
        </mxCell>
        <mxCell id="li3QjBNvHhRdPS1q4tIi-19" value="" style="endArrow=classic;html=1;rounded=0;exitX=0.5;exitY=0;exitDx=0;exitDy=0;entryX=1;entryY=1;entryDx=0;entryDy=0;" edge="1" parent="1" source="li3QjBNvHhRdPS1q4tIi-20" target="ZsmI9QigezWX8dCG7gWK-115">
          <mxGeometry width="50" height="50" relative="1" as="geometry">
            <mxPoint x="750" y="700" as="sourcePoint" />
            <mxPoint x="800" y="650" as="targetPoint" />
          </mxGeometry>
        </mxCell>
        <mxCell id="li3QjBNvHhRdPS1q4tIi-21" value="" style="endArrow=none;html=1;rounded=0;exitX=0.5;exitY=0;exitDx=0;exitDy=0;entryX=0.5;entryY=1;entryDx=0;entryDy=0;endFill=0;" edge="1" parent="1" source="ZsmI9QigezWX8dCG7gWK-69" target="li3QjBNvHhRdPS1q4tIi-20">
          <mxGeometry width="50" height="50" relative="1" as="geometry">
            <mxPoint x="990" y="760" as="sourcePoint" />
            <mxPoint x="992" y="258" as="targetPoint" />
          </mxGeometry>
        </mxCell>
        <mxCell id="li3QjBNvHhRdPS1q4tIi-20" value="Include" style="text;html=1;strokeColor=none;fillColor=default;align=center;verticalAlign=middle;whiteSpace=wrap;rounded=0;" vertex="1" parent="1">
          <mxGeometry x="960" y="490" width="60" height="30" as="geometry" />
        </mxCell>
      </root>
    </mxGraphModel>
  </diagram>
</mxfile>
